<svg width="36" height="36" viewBox="0 0 36 36" fill="none" xmlns="http://www.w3.org/2000/svg">
<path fill-rule="evenodd" clip-rule="evenodd" d="M3.00065 10.1075C3 10.3927 3 10.69 3 11V18H15.702C15.5094 17.9094 15.3079 17.8336 15.0991 17.7739C14.7546 17.6754 14.344 17.6344 13.523 17.5523L10.204 17.2204C6.78025 16.878 5.06838 16.7068 4.03419 15.564C3.08863 14.5192 3.0076 12.9915 3.00065 10.1075ZM32.8742 6.77454L32.25 25.5C31.6668 25.5 31.3752 25.5 31.0964 25.4605C30.4271 25.3658 29.7928 25.1031 29.2527 24.6968C29.0276 24.5275 28.8214 24.3214 28.409 23.909L26.7185 22.2185C25.4918 20.9917 24.8784 20.3784 24.122 20.3321C24.0408 20.3272 23.9592 20.3272 23.878 20.3321C23.1216 20.3784 22.5082 20.9917 21.2815 22.2185L20.1218 23.3782C19.7774 23.7226 19.6052 23.8947 19.4787 23.9637C18.9191 24.2689 18.2206 23.9796 18.0407 23.3681C18 23.2298 18 22.9863 18 22.4993V33H25C28.7712 33 30.6569 33 31.8284 31.8284C33 30.6568 33 28.7712 33 25V11C33 9.20741 33 7.84087 32.8742 6.77454Z" fill="#5E5E5E"/>
<path d="M4 11C4 9.08611 4.00212 7.75129 4.13753 6.74416C4.26907 5.76579 4.50966 5.2477 4.87868 4.87868C5.2477 4.50966 5.76579 4.26907 6.74416 4.13753C7.75129 4.00212 9.08611 4 11 4H25C26.9139 4 28.2487 4.00212 29.2558 4.13753C30.2342 4.26907 30.7523 4.50966 31.1213 4.87868L31.8112 4.18882L31.1213 4.87868C31.4903 5.2477 31.7309 5.76579 31.8625 6.74416C31.9979 7.75129 32 9.08611 32 11V25C32 26.9139 31.9979 28.2487 31.8625 29.2558C31.7309 30.2342 31.4903 30.7523 31.1213 31.1213C30.7523 31.4903 30.2342 31.7309 29.2558 31.8625C28.2487 31.9979 26.9139 32 25 32H19V20C19 19.9819 19 19.9637 19 19.9456C19.0001 19.5215 19.0002 19.1094 18.9545 18.7695C18.903 18.3863 18.7774 17.949 18.4142 17.5858C18.051 17.2226 17.6137 17.097 17.2305 17.0455C16.8906 16.9998 16.4785 16.9999 16.0544 17C16.0363 17 16.0182 17 16 17H4V11Z" stroke="#5E5E5E" stroke-width="2"/>
<circle cx="24" cy="12" r="3" fill="#5E5E5E"/>
<line x1="10" y1="20" x2="10" y2="33" stroke="#5E5E5E" stroke-width="2"/>
<line x1="4" y1="26.5" x2="16" y2="26.5" stroke="#5E5E5E" stroke-width="3"/>
</svg>
