<svg width="53" height="53" viewBox="0 0 53 53" fill="none" xmlns="http://www.w3.org/2000/svg">
<path d="M31.0037 13.9571L12.9453 32.0155M31.0037 13.9571L12.9453 32.0155M31.0037 13.9571C31.0054 13.9554 31.0072 13.9536 31.0089 13.9519M31.0037 13.9571L31.0089 13.9519M12.9453 32.0155L12.9346 32.0262L12.9346 32.0262C12.9215 32.0393 12.908 32.0527 12.8942 32.0664C12.7421 32.2176 12.5495 32.4091 12.4126 32.6509C12.2757 32.8926 12.2106 33.1563 12.1592 33.3646C12.1545 33.3835 12.15 33.402 12.1455 33.4199L10.2736 40.9073L11.242 41.1494L10.2736 40.9073C10.2708 40.9186 10.2679 40.9302 10.2649 40.9422C10.2281 41.0887 10.1771 41.2916 10.1595 41.4712C10.1393 41.6779 10.1326 42.1299 10.5014 42.4986C10.8702 42.8674 11.3221 42.8607 11.5288 42.8405C11.7084 42.8229 11.9113 42.7719 12.0578 42.7351C12.0698 42.7321 12.0815 42.7292 12.0927 42.7264L19.5801 40.8545C19.5981 40.85 19.6165 40.8455 19.6354 40.8408C19.8437 40.7894 20.1074 40.7243 20.3492 40.5874C20.5909 40.4505 20.7824 40.2579 20.9336 40.1058C20.9474 40.092 20.9608 40.0785 20.9738 40.0654L39.0429 21.9963L39.0814 21.9579C39.3813 21.6581 39.6728 21.3667 39.8808 21.094C40.1154 20.7866 40.3358 20.3887 40.3358 19.875C40.3358 19.3613 40.1154 18.9634 39.8808 18.656C39.6728 18.3833 39.3813 18.0919 39.0814 17.7921L39.0429 17.7537L35.2463 13.9571L35.2099 13.9206L35.2078 13.9186C34.908 13.6187 34.6167 13.3272 34.344 13.1192C34.0366 12.8847 33.6387 12.6642 33.125 12.6642C32.6113 12.6642 32.2134 12.8847 31.906 13.1192C31.6333 13.3272 31.342 13.6187 31.0422 13.9186C31.0311 13.9297 31.02 13.9408 31.0089 13.9519M12.9453 32.0155L31.0089 13.9519" stroke="#4047C1" stroke-width="2"/>
<path d="M27.6042 16.5625L34.2292 12.1458L40.8542 18.7708L36.4375 25.3958L27.6042 16.5625Z" fill="#4047C1"/>
<line x1="11" y1="42.5" x2="-1.31134e-07" y2="42.5" stroke="#4047C1" stroke-width="3"/>
</svg>
