<svg width="39" height="38" viewBox="0 0 39 38" fill="none" xmlns="http://www.w3.org/2000/svg">
<path d="M19.5 12.1875C15.6699 12.1875 12.5625 15.3672 12.5625 19.125C12.5625 22.9551 15.6699 26.0625 19.5 26.0625C23.2578 26.0625 26.4375 22.9551 26.4375 19.125C26.4375 15.3672 23.2578 12.1875 19.5 12.1875ZM37.2773 18.041L30.4121 14.6445L32.8691 7.3457C33.1582 6.40625 32.2188 5.4668 31.2793 5.75586L23.9805 8.21289L20.584 1.34766C20.1504 0.408203 18.7773 0.408203 18.3438 1.34766L14.9473 8.21289L7.64844 5.75586C6.70898 5.4668 5.76953 6.40625 6.05859 7.3457L8.51562 14.6445L1.65039 18.041C0.710938 18.4746 0.710938 19.8477 1.65039 20.2812L8.51562 23.6777L6.05859 30.9766C5.76953 31.916 6.70898 32.8555 7.64844 32.5664L14.9473 30.1094L18.3438 36.9746C18.7773 37.9141 20.1504 37.9141 20.584 36.9746L23.9805 30.1094L31.2793 32.5664C32.2188 32.8555 33.1582 31.916 32.8691 30.9766L30.4121 23.6777L37.2773 20.2812C38.2168 19.8477 38.2168 18.4746 37.2773 18.041ZM26.0039 25.7012C22.3906 29.3145 16.5371 29.3145 12.9238 25.7012C9.31055 22.0879 9.31055 16.2344 12.9238 12.6211C16.5371 9.00781 22.3906 9.00781 26.0039 12.6211C29.6172 16.2344 29.6172 22.0879 26.0039 25.7012Z" fill="white"/>
</svg>
