<svg width="62" height="71" viewBox="0 0 62 71" fill="none" xmlns="http://www.w3.org/2000/svg">
<path d="M30.625 35.75C40.1953 35.75 48.125 27.957 48.125 18.25C48.125 8.67969 40.1953 0.75 30.625 0.75C20.918 0.75 13.125 8.67969 13.125 18.25C13.125 27.957 20.918 35.75 30.625 35.75ZM42.793 40.125H40.4688C37.4609 41.6289 34.1797 42.3125 30.625 42.3125C27.0703 42.3125 23.6523 41.6289 20.6445 40.125H18.3203C8.20312 40.125 0 48.4648 0 58.582V64.1875C0 67.8789 2.87109 70.75 6.5625 70.75H54.6875C58.2422 70.75 61.25 67.8789 61.25 64.1875V58.582C61.25 48.4648 52.9102 40.125 42.793 40.125Z" fill="black"/>
</svg>
