<svg width="37" height="37" viewBox="0 0 37 37" fill="none" xmlns="http://www.w3.org/2000/svg">
<path fill-rule="evenodd" clip-rule="evenodd" d="M3.08364 10.3833C3.08334 10.6092 3.08334 10.8424 3.08334 11.0833V18.5H16.2019C16.0394 18.4236 15.8706 18.3577 15.6964 18.3031C15.3056 18.1806 14.8366 18.1337 13.8987 18.0399L10.2873 17.6787C6.86358 17.3364 5.15172 17.1652 4.11753 16.0224C3.15221 14.9557 3.08792 13.3858 3.08364 10.3833ZM33.7909 6.8579L33.1458 26.2083C32.5011 26.2083 32.1788 26.2083 31.8711 26.1601C31.243 26.0617 30.6473 25.815 30.1336 25.4404C29.882 25.257 29.654 25.029 29.1982 24.5732L27.4607 22.8357C26.1608 21.5358 25.5109 20.8859 24.7049 20.8705C24.6794 20.87 24.6539 20.87 24.6284 20.8705C23.8225 20.8859 23.1725 21.5358 21.8727 22.8357L20.6807 24.0276L20.6807 24.0276C20.2872 24.4211 20.0905 24.6178 19.9426 24.6908C19.4006 24.9584 18.747 24.6876 18.5529 24.1152C18.5 23.959 18.5 23.6808 18.5 23.1243V33.9167H25.9167C29.6879 33.9167 31.5735 33.9167 32.7451 32.7451C33.9167 31.5735 33.9167 29.6879 33.9167 25.9167V11.0833C33.9167 9.29077 33.9167 7.92423 33.7909 6.8579Z" fill="#5E5E5E"/>
<path d="M4.08334 11.0833C4.08334 9.16943 4.08546 7.83461 4.22087 6.82747C4.3524 5.84911 4.593 5.33101 4.96202 4.96199C5.33103 4.59298 5.84913 4.35238 6.8275 4.22084C7.83463 4.08544 9.16945 4.08331 11.0833 4.08331H25.9167C27.8306 4.08331 29.1654 4.08544 30.1725 4.22084C31.1509 4.35238 31.669 4.59298 32.038 4.96199C32.407 5.33101 32.6476 5.84911 32.7791 6.82747C32.9145 7.83461 32.9167 9.16943 32.9167 11.0833V25.9166C32.9167 27.8305 32.9145 29.1653 32.7791 30.1725C32.6476 31.1509 32.407 31.669 32.038 32.038C31.669 32.407 31.1509 32.6476 30.1725 32.7791C29.1654 32.9145 27.8306 32.9166 25.9167 32.9166H19.5V20.5C19.5 20.4818 19.5 20.4637 19.5 20.4456C19.5001 20.0215 19.5002 19.6094 19.4545 19.2695C19.403 18.8863 19.2774 18.449 18.9142 18.0858L18.2071 18.7929L18.9142 18.0858C18.551 17.7226 18.1137 17.597 17.7305 17.5455C17.3906 17.4998 16.9785 17.4999 16.5544 17.5C16.5363 17.5 16.5182 17.5 16.5 17.5H4.08334V11.0833Z" stroke="#5E5E5E" stroke-width="2"/>
<ellipse cx="24.6667" cy="12.3333" rx="3.08333" ry="3.08333" fill="#5E5E5E"/>
<line x1="10" y1="20" x2="10" y2="33" stroke="#5E5E5E" stroke-width="2"/>
<line x1="4" y1="26.5" x2="16" y2="26.5" stroke="#5E5E5E" stroke-width="3"/>
</svg>
