<svg width="102" height="116" viewBox="0 0 102 116" fill="none" xmlns="http://www.w3.org/2000/svg">
<path d="M51.2292 57.875C66.9519 57.875 79.9792 45.0723 79.9792 29.125C79.9792 13.4023 66.9519 0.375 51.2292 0.375C35.282 0.375 22.4792 13.4023 22.4792 29.125C22.4792 45.0723 35.282 57.875 51.2292 57.875ZM71.2195 65.0625H67.4011C62.4597 67.5332 57.0691 68.6562 51.2292 68.6562C45.3894 68.6562 39.7742 67.5332 34.8328 65.0625H31.0144C14.3933 65.0625 0.916748 78.7637 0.916748 95.3848V104.594C0.916748 110.658 5.63354 115.375 11.698 115.375H90.7605C96.6003 115.375 101.542 110.658 101.542 104.594V95.3848C101.542 78.7637 87.8406 65.0625 71.2195 65.0625Z" fill="white"/>
</svg>
