<svg width="54" height="55" viewBox="0 0 54 55" fill="none" xmlns="http://www.w3.org/2000/svg">
<path d="M26.6406 0.734375C11.9238 0.734375 0 12.6582 0 27.375C0 42.0918 11.9238 54.0156 26.6406 54.0156C41.3574 54.0156 53.2812 42.0918 53.2812 27.375C53.2812 12.6582 41.3574 0.734375 26.6406 0.734375ZM26.6406 11.0469C31.7969 11.0469 36.0938 15.3438 36.0938 20.5C36.0938 25.7637 31.7969 29.9531 26.6406 29.9531C21.377 29.9531 17.1875 25.7637 17.1875 20.5C17.1875 15.3438 21.377 11.0469 26.6406 11.0469ZM26.6406 48C20.3027 48 14.6094 45.207 10.8496 40.6953C12.8906 36.9355 16.8652 34.25 21.4844 34.25C21.6992 34.25 21.9141 34.3574 22.2363 34.4648C23.6328 34.8945 25.0293 35.1094 26.6406 35.1094C28.1445 35.1094 29.6484 34.8945 30.9375 34.4648C31.2598 34.3574 31.4746 34.25 31.7969 34.25C36.3086 34.25 40.2832 36.9355 42.3242 40.6953C38.5645 45.207 32.8711 48 26.6406 48Z" fill="#4047C1"/>
</svg>
